<?xml version="1.0" standalone="no"?>
<!DOCTYPE svg PUBLIC "-//W3C//DTD SVG 20010904//EN"
 "http://www.w3.org/TR/2001/REC-SVG-20010904/DTD/svg10.dtd">
<svg version="1.0" xmlns="http://www.w3.org/2000/svg"
 width="635.000000pt" height="635.000000pt" viewBox="0 0 635.000000 635.000000"
 preserveAspectRatio="xMidYMid meet">
<metadata>
Created by potrace 1.14, written by Peter Selinger 2001-2017
</metadata>
<g transform="translate(0.000000,635.000000) scale(0.100000,-0.100000)"
fill="#000000" stroke="none">
<path d="M4216 5508 c-38 -121 -26 -249 35 -370 16 -31 29 -59 29 -61 0 -2
-28 -22 -63 -45 -112 -73 -226 -204 -194 -224 7 -4 38 -8 70 -8 31 0 57 -4 57
-9 0 -5 -28 -47 -62 -93 -192 -258 -322 -447 -314 -455 8 -8 117 33 199 74 93
46 113 41 62 -16 -71 -79 -188 -172 -260 -207 -39 -18 -127 -49 -195 -68 -173
-48 -180 -50 -230 -76 -74 -37 -160 -91 -160 -100 0 -11 51 -23 156 -35 84 -9
95 -18 54 -43 -52 -32 -205 -69 -400 -96 -137 -19 -275 -36 -330 -41 -36 -3
-81 -7 -100 -10 -39 -5 -129 -12 -265 -20 -49 -3 -106 -8 -125 -10 -19 -2 -69
-7 -110 -10 -116 -10 -249 -32 -325 -56 -172 -53 -323 -160 -416 -296 -34 -48
-73 -132 -66 -139 2 -3 51 11 108 29 137 46 260 80 265 74 11 -11 -310 -263
-476 -375 -270 -181 -498 -219 -703 -116 -49 25 -237 201 -237 223 0 5 -10 31
-21 58 l-21 48 -16 -40 c-11 -28 -16 -76 -16 -156 l-1 -116 44 -89 c37 -74 60
-105 137 -181 l94 -93 -43 -2 c-23 -1 -51 -2 -61 -2 -36 -2 -27 -23 36 -88
105 -107 220 -148 414 -148 66 1 139 5 164 10 25 4 47 6 49 4 9 -9 -38 -49
-109 -96 -51 -32 -68 -48 -55 -49 190 -12 372 51 491 168 97 94 153 189 218
366 32 85 46 53 51 -118 5 -131 -5 -189 -45 -272 -35 -72 -105 -139 -206 -201
-85 -51 -118 -82 -144 -132 -24 -48 -58 -233 -85 -470 -6 -59 -14 -160 -21
-265 -3 -55 -7 -101 -8 -102 -1 -1 -91 -3 -201 -4 -208 -2 -248 -8 -266 -41
-11 -20 -2 -38 31 -65 12 -10 551 -12 2451 -13 2308 0 2437 1 2451 18 26 29
28 50 8 74 -18 23 -21 23 -277 26 l-258 3 -20 26 c-82 111 -165 172 -232 173
-17 0 -43 4 -56 9 -30 12 -63 78 -73 146 -3 28 -9 59 -11 70 -9 41 -11 443 -3
515 5 41 12 98 15 125 29 241 69 355 157 449 45 48 49 50 62 33 8 -11 12 -25
9 -33 -24 -63 123 92 208 220 74 109 120 200 156 303 22 66 27 101 32 228 l6
150 23 -44 c33 -61 52 -160 52 -276 1 -113 0 -113 64 -5 95 162 133 383 101
599 -6 45 -8 81 -4 81 4 0 24 -21 45 -46 47 -57 64 -74 71 -74 10 0 -6 115
-23 165 -9 27 -50 119 -90 203 l-74 154 4 87 c5 114 26 155 115 219 41 30 128
55 223 66 20 3 50 12 66 21 46 28 118 149 188 319 45 109 40 117 -91 130 -49
5 -202 21 -300 32 -101 11 -177 23 -183 29 -4 3 -20 32 -37 62 -37 69 -63 89
-140 109 -68 18 -70 19 -185 40 -507 92 -697 149 -822 247 -27 20 -39 25 -42
15z m244 -249 c41 -16 89 -38 107 -49 35 -21 70 -67 59 -77 -10 -10 -112 25
-169 59 -58 33 -94 64 -109 91 -11 22 -7 21 112 -24z m773 -226 c23 -15 40
-32 39 -38 -1 -5 -33 -10 -70 -10 -59 0 -75 4 -112 29 -42 27 -43 29 -24 43
31 23 119 11 167 -24z m27 -508 c0 -3 -33 -40 -72 -83 -79 -85 -121 -158 -136
-239 -11 -64 -6 -171 13 -242 8 -30 12 -58 9 -61 -9 -9 -71 71 -101 130 -24
49 -27 66 -28 155 0 81 4 109 21 146 30 64 106 136 178 170 55 25 116 38 116
24z m-553 -1315 c63 -91 56 -245 -17 -396 -30 -62 -107 -169 -171 -239 -231
-251 -234 -265 -233 -865 0 -292 3 -372 18 -449 9 -51 15 -95 12 -98 -6 -7
-47 15 -74 41 -39 34 -53 72 -61 164 -13 136 -6 767 9 832 35 157 81 251 175
360 187 216 222 267 262 383 27 76 34 192 18 287 l-7 44 23 -15 c13 -9 34 -31
46 -49z m-1082 -328 c-37 -91 -47 -186 -32 -292 12 -82 101 -418 161 -608 20
-63 36 -121 36 -129 0 -18 -14 -16 -122 16 -38 11 -68 18 -68 15 0 -2 27 -55
60 -118 84 -158 121 -272 195 -601 20 -88 38 -168 41 -178 5 -17 -23 -17 -558
-17 l-564 1 -71 74 c-90 93 -107 104 -184 116 -94 15 -96 16 -112 67 -42 132
-56 258 -38 315 17 52 90 113 217 181 141 76 212 125 270 184 52 53 128 160
168 240 23 45 30 52 56 52 31 0 242 -53 380 -96 110 -34 150 -40 150 -23 0 8
-12 55 -26 104 -66 241 -86 334 -91 430 -6 108 10 200 44 252 20 31 92 85 103
78 5 -3 -2 -31 -15 -63z m-916 -22 c29 -67 33 -164 12 -267 -9 -46 -15 -83
-13 -83 2 0 39 9 83 20 50 13 113 21 169 21 78 0 98 -3 148 -27 l57 -27 -104
-13 c-251 -31 -406 -113 -518 -273 -153 -217 -269 -335 -438 -446 -66 -43
-126 -86 -133 -94 -26 -32 -6 -146 72 -420 41 -146 73 -269 70 -273 -3 -4 -84
-8 -179 -8 l-174 0 -15 28 c-8 16 -44 56 -80 90 -69 64 -109 82 -181 82 l-41
0 8 88 c11 113 41 239 72 301 41 81 81 106 335 216 212 92 254 118 372 235
206 205 360 459 405 669 7 36 14 105 14 152 0 47 3 89 7 92 11 11 30 -12 52
-63z"/>
</g>
</svg>
